<?xml version="1.0" ?><!DOCTYPE svg  PUBLIC '-//W3C//DTD SVG 1.1//EN'  'http://www.w3.org/Graphics/SVG/1.1/DTD/svg11.dtd'><svg height="512px" style="enable-background:new 0 0 512 512;" version="1.1" viewBox="0 0 512 512" width="512px" xml:space="preserve" xmlns="http://www.w3.org/2000/svg" xmlns:xlink="http://www.w3.org/1999/xlink"><g id="A_-_33_x2C__user_x2C__mind_x2C__making_x2C__programming"><g><path d="M156.865,327.079h25.428V217.446h-9.43V317.71c0,1.813-1.469,3.28-3.28,3.28c-1.812,0-3.28-1.468-3.28-3.28V217.446    h-9.438V327.079z"/><path d="M123.552,268.745c0.891,0.611,1.422,1.622,1.422,2.703v36.412c0,10.598,8.664,19.219,19.311,19.219h6.02V214.167v-13.191    c0-0.641,0.188-1.268,0.541-1.804l15.998-24.301c0.607-0.922,1.636-1.477,2.74-1.477l0,0c1.104,0,2.133,0.556,2.74,1.477    l15.989,24.302c0.352,0.536,0.54,1.163,0.54,1.803v13.191v112.913h6.117c10.644,0,19.303-8.621,19.303-19.219v-36.412    c0-1.082,0.533-2.092,1.423-2.704c4.616-3.17,8.838-6.774,12.642-10.729c0.096-0.14,0.197-0.276,0.316-0.4    c2.69-2.81,5.155-5.786,7.388-8.902c0.046-0.065,0.092-0.129,0.138-0.194c0.654-0.919,1.283-1.852,1.896-2.794    c0.28-0.435,0.551-0.875,0.824-1.315c0.229-0.367,0.453-0.736,0.676-1.107c4.509-7.547,7.793-15.804,9.683-24.463    c0.013-0.058,0.025-0.114,0.038-0.172c0.31-1.438,0.578-2.887,0.811-4.346c0.026-0.157,0.055-0.312,0.079-0.47    c0.088-0.574,0.164-1.151,0.239-1.728c0.083-0.635,0.16-1.271,0.228-1.91c0.044-0.407,0.093-0.813,0.131-1.222    c0.097-1.054,0.17-2.113,0.226-3.175c0.018-0.313,0.03-0.626,0.044-0.94c0.048-1.146,0.082-2.293,0.082-3.446    c0-1.237-0.033-2.469-0.088-3.697c-0.005-0.111-0.007-0.225-0.013-0.336c-0.056-1.139-0.141-2.271-0.243-3.402    c-0.019-0.21-0.036-0.421-0.057-0.631c-0.102-1.036-0.229-2.066-0.369-3.094c-0.044-0.314-0.086-0.63-0.133-0.944    c-0.137-0.922-0.295-1.84-0.463-2.755c-0.079-0.43-0.161-0.86-0.248-1.289c-0.16-0.795-0.333-1.588-0.516-2.376    c-0.131-0.559-0.268-1.117-0.41-1.671c-0.088-0.345-0.183-0.688-0.275-1.031c-2.671-9.876-7.156-19.015-13.079-27.034    c-0.253-0.34-0.506-0.68-0.764-1.018c-0.386-0.505-0.777-1.006-1.174-1.503c-0.624-0.776-1.254-1.547-1.91-2.302    c-0.043-0.05-0.085-0.103-0.128-0.153c-0.846-0.971-1.717-1.925-2.612-2.86c-0.029-0.03-0.05-0.067-0.077-0.097    c-14.862-15.563-35.813-25.274-58.992-25.274c-44.923,0-81.471,36.547-81.471,81.468    C88.112,228.334,101.361,253.499,123.552,268.745z"/><path d="M236.687,144.452c0.234,0.273,0.467,0.547,0.697,0.823c0.558,0.673,1.107,1.353,1.646,2.041    c6.586,8.377,11.526,17.809,14.664,27.872c0.018,0.059,0.037,0.117,0.055,0.177c0.352,1.133,0.678,2.274,0.983,3.422    c0.091,0.338,0.181,0.674,0.267,1.013c0.177,0.705,0.35,1.411,0.51,2.12c0.17,0.749,0.33,1.502,0.481,2.257    c0.094,0.47,0.186,0.94,0.271,1.411c0.178,0.97,0.337,1.946,0.482,2.926c0.051,0.352,0.101,0.705,0.148,1.059    c0.146,1.078,0.275,2.162,0.38,3.252c0.024,0.249,0.045,0.5,0.066,0.749c0.105,1.179,0.191,2.361,0.249,3.552    c0.007,0.145,0.011,0.29,0.017,0.435c0.056,1.284,0.09,2.573,0.09,3.871c0,1.221-0.034,2.436-0.084,3.649    c-0.014,0.333-0.027,0.666-0.045,0.999c-0.061,1.125-0.133,2.247-0.236,3.363c-0.037,0.433-0.091,0.862-0.136,1.293    c-0.071,0.677-0.149,1.354-0.237,2.029c-0.078,0.609-0.158,1.219-0.247,1.826c-0.025,0.158-0.053,0.315-0.079,0.473    c-0.24,1.555-0.524,3.097-0.846,4.63c-0.012,0.059-0.025,0.118-0.038,0.177c-1.958,9.239-5.384,18.057-10.161,26.16    c-0.146,0.249-0.295,0.496-0.444,0.743c-0.382,0.634-0.763,1.268-1.162,1.893c-0.558,0.879-1.136,1.747-1.724,2.606    c-0.126,0.183-0.254,0.366-0.382,0.548c-2.299,3.304-4.825,6.458-7.573,9.434v154.489l68.696-37.223    c1.592-0.862,3.584-0.271,4.447,1.321c0.861,1.593,0.271,3.583-1.321,4.446l-62.164,33.683h68.124    c5.566-5.174,5.663-21.159,5.748-35.33c0.094-15.732,0.182-30.592,6.502-37.741c7.001-7.951,15.262-9.023,22.418-9.023    c3.082,0,6.275,0.219,9.656,0.452c3.232,0.223,6.572,0.452,10.094,0.51c0.37,0.006,0.732,0.01,1.092,0.01    c9.416,0,15.894-2.096,19.799-6.406c6.52-7.193,5.221-20.359,4.076-31.978c-1.297-13.158-2.522-25.586,7.377-29.521    c2.087-0.834,2.996-0.979,5.194-1.332l0.123-0.02c11.976-2.484,14.581-5.359,15.067-6.854c1.125-3.457-5.104-10.317-11.13-16.95    c-5.136-5.654-10.957-12.063-15.435-19.311c-4.991-8.074-4.877-19.815-4.744-33.412c0.303-30.991,0.718-73.434-54.468-113.099    c-24.585-17.641-56.329-27.357-89.382-27.357c-3.251,0-6.526,0.097-9.77,0.29v90.862c0.005,0.006,0.011,0.013,0.017,0.019    C235.125,142.654,235.915,143.545,236.687,144.452z M309.652,356.097l-51.141,27.827c-0.498,0.271-1.035,0.398-1.565,0.398    c-1.162,0-2.288-0.618-2.883-1.712c-0.866-1.591-0.278-3.583,1.313-4.448l51.141-27.827c1.592-0.865,3.583-0.276,4.449,1.313    C311.832,353.239,311.244,355.23,309.652,356.097z M350.123,208.565c0,7.887-6.375,14.303-14.21,14.303    c-7.889,0-14.308-6.416-14.308-14.303s6.419-14.303,14.308-14.303C343.748,194.262,350.123,200.678,350.123,208.565z     M259.579,88.207c20.901-1.636,41.813,3.887,57.384,15.159c12.298,8.822,20.665,18.572,25.569,29.801    c0.725,1.66-0.033,3.593-1.692,4.318c-0.428,0.187-0.873,0.274-1.313,0.274c-1.264,0-2.469-0.735-3.007-1.967    c-4.418-10.117-12.069-18.983-23.393-27.105c-14.34-10.381-33.667-15.458-53.036-13.94c-1.797,0.138-3.385-1.207-3.526-3.013    C256.424,89.927,257.773,88.349,259.579,88.207z"/><polygon points="182.292,201.958 169.582,182.64 156.865,201.958 156.865,210.887 182.292,210.887   "/><path d="M328.166,208.565c0,4.269,3.475,7.743,7.747,7.743c4.219,0,7.65-3.474,7.65-7.743s-3.432-7.743-7.65-7.743    C331.641,200.822,328.166,204.296,328.166,208.565z"/><polygon points="199.913,344.969 199.913,333.639 194.969,333.639 185.572,333.639 153.585,333.639 147.565,333.639     147.565,344.969 152.685,344.969 194.696,344.969   "/><path d="M406.416,442.753c0-1.811-1.469-3.28-3.28-3.28H56.285c-1.811,0-3.28,1.47-3.28,3.28c0,1.812,1.469,3.28,3.28,3.28    h346.851C404.947,446.033,406.416,444.564,406.416,442.753z"/><path d="M117.411,110.824c0.607,1.053,1.71,1.642,2.845,1.642c0.555,0,1.119-0.142,1.635-0.439    c1.569-0.905,2.107-2.911,1.202-4.48l-13.187-22.86c-0.905-1.569-2.911-2.108-4.48-1.202c-1.568,0.905-2.106,2.911-1.202,4.48    L117.411,110.824z"/><path d="M56.646,137.959l22.856,13.098c0.514,0.294,1.074,0.435,1.627,0.435c1.138,0,2.243-0.592,2.849-1.649    c0.902-1.572,0.357-3.576-1.214-4.477l-22.856-13.098c-1.573-0.902-3.576-0.357-4.476,1.214    C54.531,135.054,55.075,137.059,56.646,137.959z"/><path d="M70.134,201.698c0-1.811-1.468-3.28-3.28-3.28H40.473c-1.812,0-3.28,1.469-3.28,3.28c0,1.812,1.469,3.28,3.28,3.28h26.381    C68.666,204.978,70.134,203.51,70.134,201.698z"/><path d="M169.45,92.226c0.014,0.001,0.027,0.001,0.041,0.001c1.792,0,3.257-1.442,3.279-3.241l0.273-22.498    c0.022-1.811-1.428-3.297-3.239-3.319c-1.825-0.055-3.298,1.428-3.319,3.24l-0.273,22.498    C166.188,90.718,167.639,92.204,169.45,92.226z"/><path d="M173.739,424.711c1.812,0,3.28-1.639,3.28-3.658v-58.106h14.398v-11.418h-35.452v11.418h14.494v58.106    C170.459,423.072,171.928,424.711,173.739,424.711z"/><path d="M471.527,454.833h-346.85c-1.812,0-3.28,1.469-3.28,3.279c0,1.812,1.468,3.28,3.28,3.28h346.85    c1.811,0,3.279-1.469,3.279-3.28C474.807,456.302,473.338,454.833,471.527,454.833z"/></g></g><g id="Layer_1"/></svg>